<svg width="177" height="125" viewBox="0 0 177 125" fill="none" xmlns="http://www.w3.org/2000/svg">
<g clip-path="url(#clip0_1_133)">
<path d="M159.98 88.33C154.56 87.65 148.92 86.01 143.26 84.39C132.24 81.24 122.03 76.23 111.83 71.14C104.44 67.45 96.98 63.89 89.46 60.49C82.89 57.52 76.21 54.79 69.25 52.83C62.81 51.02 56.25 50.02 49.57 50.05C46.73 50.06 43.89 50.44 41.1 51.06C39.18 51.49 38.98 51.31 39.51 49.34C40.17 46.87 40.86 44.4 41.7 41.98C44.08 35.13 47.13 28.6 51.5 22.77C56.2 16.51 62.08 11.64 69.21 8.33C76.35 5.01 83.86 3.16 91.72 2.7C97.51 2.36 103.3 2.23 109.03 3.4C110.44 3.69 111.55 3.66 112.23 2.05C112.64 1.07 113.65 0.520001 114.71 0.280001C117.98 -0.439999 120.94 0.210001 123.45 2.49C124.42 3.37 124.76 4.55 124.66 5.86C124.63 6.25 124.52 6.58 124.24 6.87C123.75 7.38 123.76 7.4 124.03 7.49C129.1 9.18 133.81 11.64 138.45 14.23C146.23 18.58 153.28 23.82 158.79 30.96C163.22 36.71 166.18 43.12 167.64 50.21C169.64 59.91 169.43 69.67 168.16 79.42C167.86 81.74 167.65 84.15 166.76 86.38C166.03 88.21 165.54 88.56 163.59 88.58C163.31 88.58 163.02 88.56 162.73 88.54C161.97 88.49 161.21 88.42 160.01 88.33H159.98ZM134.92 43.16C135.22 41.75 134.78 39.67 134.87 37.58C135.02 33.87 134.69 30.19 133.92 26.56C132.79 21.21 130.94 16.17 127.33 11.93C127.18 11.76 126.79 11.54 126.76 11.56C126.53 11.82 126.75 12.05 126.88 12.28C128.98 15.92 130.55 19.74 131.42 23.88C132.71 30.06 132.87 36.3 132.63 42.56C132.32 50.54 131.06 58.41 129.34 66.2C129.19 66.9 128.85 67.64 129.27 68.38C129.6 67.71 130.01 67.06 130.23 66.35C132.54 59 133.88 51.45 134.93 43.15L134.92 43.16Z" fill="#141213"/>
<path d="M54.4 53.05C62.27 53.51 69.84 55.71 77.24 58.48C89.52 63.07 101.3 68.81 113.06 74.57C116.72 76.36 120.48 77.97 124.19 79.67C124.88 79.99 125.58 80.28 126.25 80.63C127.42 81.25 127.44 81.35 126.52 82.14C125.8 82.76 125.08 83.4 124.29 83.92C115.25 89.92 105.59 94.4 94.76 96.08C88.11 97.11 81.46 97.06 74.99 95.25C70.61 94.02 66.46 92 62.59 89.57C56.56 85.77 50.61 81.85 44.64 77.98C39.16 74.43 33.24 71.89 26.82 70.73C20.82 69.64 14.9 70.25 9.16002 72.36C8.94002 72.44 8.79002 72.69 8.60002 72.86C8.84002 73.11 9.12002 73.01 9.40002 72.96C17.66 71.24 25.62 72.63 33.48 75.22C33.72 75.3 34 75.51 34.11 75.74C34.3 76.14 33.89 76.12 33.66 76.21C28.39 78.36 23.29 80.95 17.71 82.27C13.81 83.19 9.88002 83.81 5.90002 82.73C5.44002 82.61 4.97002 82.53 4.53002 82.37C-0.45998 80.55 -1.48998 75.7 2.36002 72.06C4.30002 70.22 6.46002 68.67 8.82002 67.41C18.06 62.48 27.68 58.43 37.47 54.74C40.99 53.41 47.82 52.23 54.43 53.06L54.4 53.05Z" fill="#141213"/>
<path d="M39.33 84.84C39.77 84.46 40.25 84.37 40.77 84.56C41.29 84.75 41.77 85.08 42.21 85.54C42.65 86 43.02 86.52 43.32 87.09C43.62 87.66 43.76 88.13 43.76 88.51C43.74 89.64 43.31 91.02 42.46 92.65C41.61 94.28 40.52 96.03 39.19 97.9C37.86 99.76 36.4 101.69 34.81 103.68C33.22 105.67 31.67 107.57 30.16 109.38C28.65 111.19 27.28 112.87 26.06 114.42C24.83 115.97 23.92 117.24 23.32 118.24C23.19 118.47 23.05 118.65 22.9 118.78C22.74 118.91 22.58 119.02 22.41 119.12C22.24 119.22 22.03 119.25 21.79 119.2C21.42 119.14 21.05 119.03 20.67 118.89C20.29 118.74 19.95 118.52 19.67 118.22C19.38 117.92 19.15 117.49 18.96 116.94C18.77 116.39 18.68 115.69 18.7 114.84C18.72 113.71 18.87 112.42 19.14 110.98C19.41 109.53 19.77 108.02 20.21 106.45C20.65 104.88 21.16 103.27 21.75 101.62C22.33 99.98 22.93 98.38 23.54 96.83C24.15 95.28 24.76 93.83 25.37 92.47C25.98 91.11 26.55 89.92 27.09 88.91C24.69 88.87 22.47 89.14 20.4 89.73C18.34 90.32 16.55 91.08 15.03 92.02C13.52 92.96 12.32 93.99 11.44 95.12C10.57 96.25 10.12 97.33 10.1 98.37C10.09 99 10.12 99.51 10.21 99.9C10.27 100.13 10.32 100.35 10.38 100.55C9.83001 100.28 9.35001 99.93 8.94001 99.5C8.58001 99.11 8.26001 98.62 7.98001 98.03C7.70001 97.44 7.57001 96.71 7.59001 95.87C7.62001 94.3 8.24001 92.81 9.45001 91.39C10.66 89.97 12.27 88.78 14.28 87.8C16.28 86.82 18.58 86.13 21.18 85.71C23.78 85.29 26.49 85.31 29.3 85.75C29.45 85.77 29.73 85.9 30.12 86.11C30.51 86.33 30.91 86.59 31.3 86.88C31.69 87.18 32.04 87.49 32.35 87.81C32.65 88.14 32.8 88.41 32.8 88.63C32.8 88.79 32.61 89.26 32.22 90.05C31.84 90.84 31.33 91.85 30.71 93.07C30.09 94.29 29.4 95.68 28.65 97.23C27.9 98.78 27.15 100.39 26.4 102.08C25.65 103.77 24.94 105.48 24.28 107.22C23.62 108.96 23.09 110.64 22.69 112.24C23.66 111.08 24.76 109.77 25.98 108.3C27.2 106.83 28.46 105.3 29.75 103.71C31.04 102.12 32.3 100.49 33.53 98.83C34.76 97.17 35.86 95.56 36.83 94C37.8 92.44 38.58 90.97 39.18 89.59C39.78 88.21 40.08 87.01 40.1 85.97C40.1 85.75 40.02 85.61 39.83 85.54C39.65 85.47 39.48 85.42 39.32 85.4C39.16 85.38 39.07 85.34 39.02 85.27C38.97 85.2 39.08 85.06 39.33 84.84ZM40.14 112.88C40.52 112.55 40.81 112.44 41 112.54C41.2 112.64 41.3 112.87 41.29 113.21C41.29 113.55 41.18 113.96 40.97 114.42C40.76 114.88 40.42 115.3 39.95 115.68C39.67 115.93 39.2 116.31 38.56 116.84C37.92 117.37 37.24 117.9 36.54 118.43C35.84 118.96 35.17 119.43 34.55 119.83C33.93 120.23 33.46 120.41 33.15 120.36C33.03 120.34 32.87 120.3 32.67 120.22C32.47 120.14 32.27 119.98 32.08 119.71C31.88 119.45 31.71 119.06 31.57 118.55C31.43 118.04 31.36 117.35 31.38 116.47C31.4 115.22 31.66 113.89 32.17 112.49C32.67 111.09 33.26 109.79 33.93 108.6C34.6 107.41 35.26 106.43 35.9 105.65C36.55 104.88 37.04 104.51 37.38 104.56C38.18 104.67 38.89 104.96 39.52 105.43C40.14 105.9 40.45 106.37 40.44 106.84C40.44 107.03 40.21 107.43 39.77 108.05C39.33 108.67 38.81 109.42 38.22 110.3C37.63 111.18 37.03 112.15 36.41 113.21C35.79 114.27 35.3 115.31 34.94 116.33C35.16 116.2 35.52 115.98 36.04 115.66C36.56 115.34 37.09 114.99 37.66 114.61C38.22 114.23 38.74 113.88 39.21 113.56C39.68 113.24 39.99 113.02 40.15 112.88H40.14ZM42.97 96.88C44.02 96.88 44.8 97.09 45.3 97.51C45.8 97.93 46.08 98.34 46.14 98.76C46.19 99.2 46.16 99.46 46.06 99.53C45.95 99.6 45.73 99.73 45.4 99.92C45.07 100.12 44.61 100.5 44.01 101.07C43.41 101.64 42.65 102.65 41.73 104.11C41.36 103.91 41.03 103.69 40.72 103.47C40.48 103.28 40.24 103.04 40.02 102.75C39.79 102.46 39.65 102.13 39.6 101.78C39.54 101.43 39.63 100.98 39.86 100.43C40.08 99.88 40.38 99.35 40.75 98.83C41.11 98.31 41.49 97.87 41.88 97.49C42.27 97.12 42.64 96.92 42.98 96.9L42.97 96.88ZM53.49 114.34C53.87 114 54.16 113.88 54.36 113.97C54.56 114.07 54.66 114.29 54.65 114.63C54.65 114.97 54.53 115.38 54.3 115.84C54.07 116.3 53.73 116.73 53.25 117.13C52.97 117.39 52.49 117.79 51.81 118.33C51.13 118.87 50.42 119.42 49.66 119.97C48.91 120.52 48.19 121 47.52 121.41C46.85 121.82 46.36 122.01 46.05 121.98C45.93 121.97 45.79 121.9 45.64 121.77C45.49 121.64 45.34 121.44 45.19 121.16C45.04 120.88 44.92 120.5 44.82 120.01C44.72 119.53 44.68 118.93 44.69 118.21C44.69 117.68 44.83 117.01 45.07 116.19C45.32 115.37 45.62 114.54 45.97 113.69C46.33 112.84 46.69 112 47.06 111.18C47.43 110.36 47.76 109.67 48.05 109.1C47.89 109.11 47.74 109.13 47.58 109.14C47.33 109.14 46.94 109.14 46.42 109.15C45.63 110.22 44.61 111.37 43.37 112.58C42.12 113.8 40.69 115.04 39.06 116.3C38.81 116.52 38.6 116.55 38.43 116.41C38.26 116.26 38.15 116.04 38.09 115.76C38.03 115.47 38.05 115.16 38.15 114.83C38.25 114.5 38.47 114.23 38.81 114.02C39.22 113.76 39.64 113.43 40.08 113.03C40.52 112.63 40.97 112.2 41.42 111.74C41.88 111.28 42.31 110.79 42.72 110.28C43.13 109.77 43.53 109.27 43.91 108.78C43.32 108.55 42.84 108.24 42.44 107.83C42.05 107.42 41.85 106.86 41.87 106.14C41.87 105.55 42 104.97 42.22 104.42C42.45 103.87 42.77 103.38 43.19 102.96C43.62 102.54 44.11 102.22 44.67 102.01C45.23 101.79 45.87 101.72 46.57 101.8C47.65 101.92 48.32 102.38 48.59 103.17C48.85 103.96 48.7 105.02 48.11 106.33C48.54 106.25 48.98 106.18 49.42 106.12C49.85 106.06 50.26 106.04 50.63 106.08C50.63 106.1 50.63 106.11 50.63 106.13C51.03 106.17 51.43 106.27 51.83 106.44C52.23 106.6 52.58 106.81 52.89 107.06C53.19 107.31 53.45 107.57 53.64 107.84C53.84 108.11 53.93 108.35 53.93 108.57C53.93 108.73 53.7 109.11 53.24 109.72C52.78 110.33 52.23 111.08 51.6 111.95C50.96 112.83 50.33 113.79 49.69 114.83C49.05 115.88 48.57 116.91 48.24 117.94C48.43 117.8 48.78 117.57 49.3 117.23C49.82 116.89 50.36 116.52 50.92 116.13C51.49 115.73 52.01 115.37 52.5 115.04C52.98 114.71 53.31 114.48 53.46 114.33L53.49 114.34ZM45.58 104.28C45.3 104.25 45.05 104.32 44.83 104.5C44.61 104.68 44.48 104.89 44.42 105.13C44.37 105.38 44.42 105.62 44.57 105.88C44.72 106.13 45.01 106.32 45.44 106.43C45.76 105.84 45.95 105.34 46 104.94C46.05 104.54 45.91 104.32 45.57 104.28H45.58ZM67.82 99.15C68.82 99.02 69.7 99.05 70.48 99.23C71.26 99.41 71.9 99.67 72.4 100.01C72.91 100.35 73.29 100.71 73.55 101.09C73.81 101.48 73.94 101.82 73.93 102.14C73.93 102.45 73.85 102.75 73.73 103.04C73.6 103.33 73.45 103.58 73.27 103.79C73.1 104 72.92 104.15 72.75 104.23C72.58 104.31 72.45 104.31 72.35 104.21C72.26 104.11 72.25 103.96 72.34 103.74C72.42 103.53 72.5 103.3 72.56 103.07C72.62 102.84 72.65 102.64 72.64 102.47C72.63 102.3 72.5 102.21 72.25 102.19C72.19 102.19 71.93 102.21 71.48 102.27C71.03 102.32 70.46 102.38 69.77 102.43C69.09 102.49 68.32 102.54 67.48 102.6C66.64 102.66 65.81 102.7 65 102.74C63.7 104.4 62.32 106.49 60.88 109.02C59.44 111.55 57.88 114.71 56.2 118.5C56.7 118.17 57.24 117.81 57.8 117.42C58.37 117.03 58.89 116.67 59.38 116.33C59.87 115.99 60.28 115.71 60.63 115.47C60.98 115.23 61.2 115.07 61.29 114.98C61.67 114.63 61.96 114.51 62.16 114.6C62.36 114.69 62.46 114.91 62.45 115.25C62.45 115.59 62.33 116 62.1 116.47C61.87 116.94 61.53 117.37 61.05 117.77C60.8 118 60.39 118.36 59.82 118.85C59.25 119.34 58.64 119.85 57.98 120.39C57.32 120.93 56.68 121.42 56.07 121.87C55.46 122.32 54.98 122.6 54.64 122.73C54.58 122.76 54.52 122.77 54.45 122.76C54.39 122.79 54.28 122.79 54.12 122.78C53.78 122.75 53.5 122.63 53.29 122.42C53.08 122.21 52.9 121.96 52.77 121.67C52.64 121.38 52.55 121.06 52.51 120.73C52.47 120.4 52.45 120.09 52.46 119.81C52.48 118.59 52.7 117.26 53.11 115.82C53.52 114.37 54.06 112.9 54.72 111.4C55.38 109.9 56.14 108.39 56.99 106.89C57.84 105.39 58.7 103.95 59.56 102.58C59.54 102.58 59.53 102.58 59.51 102.58C58.89 102.53 58.3 102.43 57.75 102.27C57.19 102.11 56.71 101.9 56.29 101.62C55.88 101.35 55.55 101 55.31 100.58C55.07 100.16 54.95 99.65 54.96 99.05C54.96 98.58 55.06 98.18 55.24 97.85C55.42 97.52 55.61 97.27 55.83 97.08C56.05 96.9 56.26 96.77 56.47 96.71C56.67 96.65 56.8 96.65 56.87 96.72C56.99 96.89 56.99 97.09 56.86 97.33C56.73 97.57 56.62 97.81 56.54 98.05C56.46 98.29 56.49 98.51 56.62 98.71C56.76 98.91 57.15 99.04 57.8 99.09C58.17 99.12 58.73 99.14 59.47 99.14C60.22 99.14 61.04 99.11 61.94 99.06C63.02 97.6 63.82 96.62 64.34 96.13C64.86 95.64 65.26 95.41 65.54 95.43C65.69 95.44 65.95 95.52 66.3 95.67C66.65 95.82 67.01 96.01 67.36 96.25C67.71 96.49 68.02 96.74 68.28 97.01C68.54 97.28 68.67 97.52 68.66 97.73C68.66 97.82 68.66 97.89 68.66 97.94C68.66 97.99 68.64 98.06 68.59 98.15C68.54 98.24 68.45 98.36 68.33 98.51C68.2 98.66 68.03 98.87 67.8 99.13L67.82 99.15ZM79.26 115.98C79.67 115.62 79.98 115.48 80.18 115.56C80.38 115.64 80.48 115.86 80.47 116.2C80.47 116.54 80.35 116.95 80.12 117.43C79.89 117.91 79.54 118.35 79.07 118.77C78.79 119.04 78.29 119.47 77.6 120.05C76.9 120.63 76.18 121.22 75.42 121.81C74.66 122.4 73.94 122.93 73.27 123.38C72.59 123.83 72.1 124.05 71.79 124.04C71.66 124.04 71.52 123.97 71.37 123.86C71.21 123.74 71.06 123.55 70.91 123.28C70.76 123.01 70.63 122.64 70.53 122.16C70.43 121.69 70.39 121.09 70.4 120.38C70.4 119.85 70.47 119.29 70.59 118.71C70.71 118.12 70.85 117.52 71.02 116.91C70.32 117.75 69.57 118.56 68.76 119.36C67.95 120.16 67.15 120.87 66.34 121.49C65.54 122.11 64.77 122.61 64.05 122.98C63.33 123.35 62.69 123.52 62.13 123.48C62.01 123.48 61.83 123.37 61.6 123.19C61.37 123 61.14 122.74 60.91 122.41C60.68 122.08 60.48 121.68 60.3 121.22C60.12 120.75 60.04 120.24 60.05 119.68C60.07 118.84 60.2 117.95 60.45 117.02C60.7 116.09 61.02 115.17 61.41 114.26C61.8 113.35 62.22 112.49 62.69 111.66C63.15 110.84 63.6 110.11 64.03 109.48C64.46 108.85 64.85 108.36 65.2 107.99C65.55 107.62 65.82 107.44 66 107.46C66.4 107.49 66.83 107.58 67.28 107.75C67.73 107.92 68.12 108.14 68.46 108.41C68.8 108.68 69.08 108.98 69.31 109.3C69.54 109.62 69.65 109.96 69.64 110.3C69.64 110.36 69.49 110.63 69.18 111.09C68.88 111.56 68.5 112.12 68.05 112.78C67.6 113.44 67.13 114.15 66.64 114.89C66.14 115.64 65.71 116.33 65.35 116.96C64.98 117.59 64.71 118.12 64.53 118.54C64.35 118.97 64.37 119.18 64.59 119.2C64.9 119.22 65.38 118.96 66.03 118.43C66.67 117.89 67.4 117.2 68.19 116.36C68.98 115.52 69.81 114.61 70.69 113.65C71.56 112.68 72.39 111.77 73.17 110.92C73.95 110.07 74.63 109.37 75.22 108.82C75.81 108.27 76.22 108 76.47 108.01C76.87 108.03 77.28 108.1 77.68 108.24C78.08 108.38 78.44 108.55 78.75 108.77C79.06 108.98 79.31 109.22 79.51 109.47C79.71 109.72 79.8 109.96 79.8 110.18C79.8 110.34 79.56 110.73 79.1 111.37C78.64 112.01 78.09 112.78 77.45 113.69C76.81 114.6 76.17 115.6 75.53 116.67C74.89 117.75 74.38 118.83 74.03 119.9C74.22 119.75 74.58 119.5 75.09 119.13C75.61 118.76 76.16 118.36 76.72 117.93C77.29 117.5 77.82 117.1 78.31 116.73C78.8 116.36 79.12 116.11 79.28 115.99L79.26 115.98ZM96.86 116.12C97.24 115.74 97.53 115.59 97.74 115.67C97.94 115.75 98.04 115.95 98.03 116.27C98.03 116.6 97.91 117.01 97.68 117.51C97.45 118.01 97.1 118.46 96.62 118.87C96.33 119.15 95.84 119.61 95.14 120.23C94.44 120.86 93.71 121.48 92.95 122.1C92.19 122.72 91.47 123.27 90.79 123.75C90.11 124.23 89.63 124.47 89.35 124.47C89.22 124.47 89.08 124.41 88.91 124.3C88.74 124.19 88.58 124 88.43 123.74C88.28 123.48 88.15 123.11 88.05 122.64C87.95 122.17 87.9 121.58 87.92 120.87C87.93 120.09 88.04 119.29 88.24 118.45C87.76 119.13 87.24 119.82 86.68 120.53C86.12 121.24 85.57 121.87 85.03 122.44C84.49 123.01 83.96 123.47 83.46 123.83C82.96 124.19 82.5 124.37 82.09 124.36C81 124.33 80.12 123.89 79.45 123.03C78.78 122.17 78.45 121.1 78.48 119.83C78.5 118.65 78.83 117.38 79.48 116.01C80.13 114.65 80.98 113.39 82.02 112.23C83.07 111.08 84.27 110.12 85.63 109.35C86.98 108.58 88.39 108.2 89.86 108.21C90.48 108.21 90.97 108.41 91.33 108.8C91.68 109.19 91.95 109.6 92.13 110.04C92.51 109.48 92.87 109.04 93.21 108.71C93.54 108.38 93.8 108.22 93.99 108.22C94.4 108.22 94.8 108.28 95.21 108.4C95.61 108.52 95.97 108.68 96.28 108.88C96.59 109.08 96.84 109.3 97.04 109.55C97.24 109.8 97.33 110.03 97.33 110.25C97.33 110.44 97.09 110.86 96.63 111.51C96.17 112.17 95.61 112.96 94.97 113.89C94.33 114.83 93.68 115.84 93.04 116.95C92.4 118.05 91.91 119.15 91.58 120.23C91.77 120.08 92.13 119.8 92.65 119.39C93.17 118.99 93.72 118.57 94.29 118.13C94.86 117.69 95.39 117.28 95.88 116.89C96.37 116.5 96.69 116.24 96.85 116.11L96.86 116.12ZM83.12 120C83.31 120 83.64 119.79 84.11 119.37C84.59 118.94 85.12 118.41 85.73 117.77C86.33 117.13 86.96 116.43 87.61 115.68C88.26 114.93 88.87 114.22 89.43 113.55C89.99 112.89 90.44 112.33 90.79 111.88C91.14 111.43 91.33 111.19 91.36 111.16C91.42 111.1 91.47 111.04 91.5 110.97C91.38 110.94 91.17 110.92 90.89 110.92C90.2 110.92 89.5 111.14 88.77 111.58C88.05 112.02 87.34 112.58 86.66 113.26C85.98 113.93 85.35 114.66 84.77 115.44C84.19 116.22 83.73 116.95 83.37 117.63C83.01 118.31 82.8 118.87 82.73 119.32C82.66 119.77 82.78 120 83.09 120H83.12ZM105.46 115.57C105.84 115.19 106.12 115.05 106.29 115.15C106.46 115.25 106.51 115.49 106.44 115.86C106.37 116.23 106.2 116.68 105.92 117.2C105.64 117.72 105.27 118.2 104.79 118.65C104.54 118.87 104.1 119.31 103.48 119.94C102.86 120.58 102.19 121.23 101.48 121.89C100.76 122.56 100.07 123.14 99.39 123.65C98.71 124.16 98.18 124.41 97.8 124.42C97.46 124.42 97.17 124.34 96.96 124.15C96.74 123.97 96.57 123.73 96.43 123.44C96.3 123.15 96.21 122.84 96.17 122.51C96.13 122.19 96.11 121.88 96.11 121.6C96.13 120.3 96.39 118.83 96.89 117.2C97.39 115.57 98.02 113.9 98.78 112.2C99.54 110.5 100.39 108.83 101.3 107.18C102.22 105.54 103.1 104.08 103.93 102.8C104.76 101.52 105.51 100.49 106.16 99.7C106.82 98.91 107.27 98.5 107.52 98.5C107.68 98.5 107.92 98.56 108.24 98.68C108.57 98.81 108.89 98.97 109.22 99.16C109.54 99.35 109.82 99.56 110.05 99.8C110.28 100.04 110.39 100.27 110.39 100.48C110.39 100.7 110.06 101.22 109.43 102.05C108.79 102.88 107.98 104.06 107 105.59C106.02 107.12 104.93 109.03 103.74 111.3C102.54 113.58 101.4 116.27 100.32 119.39C100.35 119.48 100.62 119.35 101.12 119C101.63 118.65 102.19 118.23 102.81 117.75C103.43 117.27 104 116.81 104.52 116.36C105.04 115.91 105.35 115.64 105.45 115.54L105.46 115.57ZM134.62 87.54C136.19 87.39 137.53 87.49 138.65 87.83C139.77 88.18 140.68 88.64 141.39 89.24C142.1 89.84 142.62 90.49 142.95 91.19C143.28 91.89 143.44 92.53 143.43 93.12C143.41 94.29 143.12 95.52 142.55 96.8C141.98 98.08 141.22 99.36 140.28 100.63C139.34 101.9 138.27 103.13 137.08 104.3C135.89 105.47 134.65 106.51 133.37 107.42C132.09 108.33 130.81 109.07 129.55 109.64C128.29 110.21 127.14 110.54 126.11 110.62C125.3 110.68 124.56 110.58 123.89 110.3C123.22 110.03 122.7 109.71 122.33 109.37C121.11 111.4 120.06 113.46 119.2 115.55C118.34 117.64 117.89 119.66 117.85 121.61C117.85 121.98 117.88 122.23 117.96 122.37C118.03 122.5 118.13 122.58 118.24 122.58C118.35 122.58 118.45 122.58 118.55 122.56C118.64 122.54 118.71 122.54 118.74 122.57C118.89 122.71 118.91 122.94 118.8 123.24C118.69 123.54 118.32 123.71 117.69 123.75C116.97 123.79 116.36 123.44 115.86 122.68C115.36 121.92 115.12 120.74 115.15 119.13C115.17 117.68 115.46 116.08 116.01 114.33C116.55 112.58 117.24 110.82 118.07 109.04C118.9 107.26 119.8 105.52 120.79 103.82C121.77 102.12 122.71 100.6 123.61 99.28C124.51 97.95 125.31 96.88 126.01 96.07C126.71 95.26 127.19 94.85 127.44 94.83C127.6 94.82 127.88 94.88 128.28 95.02C128.68 95.16 129.09 95.32 129.49 95.52C129.89 95.72 130.25 95.94 130.56 96.19C130.87 96.44 131.02 96.68 131.02 96.89C131.02 97.08 130.78 97.48 130.32 98.11C129.86 98.74 129.25 99.54 128.5 100.51C127.75 101.48 126.92 102.6 126 103.85C125.09 105.11 124.18 106.45 123.28 107.87C124.16 107.72 125.19 107.38 126.37 106.85C127.55 106.33 128.78 105.68 130.04 104.9C131.3 104.13 132.54 103.26 133.74 102.3C134.94 101.34 136.02 100.32 136.98 99.25C137.94 98.18 138.71 97.11 139.31 96.03C139.91 94.95 140.21 93.9 140.23 92.88C140.23 92.42 140.1 92.04 139.83 91.75C139.56 91.46 139.19 91.23 138.74 91.08C138.29 90.93 137.79 90.83 137.24 90.8C136.69 90.76 136.16 90.77 135.62 90.82C132.71 91.1 129.97 91.79 127.42 92.88C124.87 93.98 122.64 95.23 120.74 96.66C118.84 98.09 117.33 99.57 116.23 101.09C115.12 102.62 114.56 103.95 114.54 105.1C114.54 105.41 114.54 105.7 114.57 105.96C114.6 106.22 114.64 106.44 114.7 106.63C114.76 106.84 114.82 107.04 114.88 107.22C114.29 107.06 113.78 106.83 113.34 106.51C112.97 106.22 112.63 105.82 112.33 105.3C112.03 104.79 111.88 104.1 111.9 103.23C111.92 101.65 112.57 100 113.84 98.27C115.1 96.54 116.79 94.93 118.9 93.44C121 91.94 123.42 90.66 126.15 89.58C128.87 88.5 131.71 87.82 134.65 87.54H134.62ZM142.84 112.96C143.35 112.5 143.68 112.27 143.84 112.26C144 112.26 144.05 112.37 144 112.59C143.95 112.81 143.85 113.08 143.68 113.39C143.52 113.7 143.39 113.93 143.29 114.06C142.84 114.73 142.23 115.52 141.44 116.42C140.66 117.33 139.78 118.2 138.79 119.03C137.81 119.86 136.75 120.59 135.61 121.22C134.47 121.85 133.34 122.21 132.21 122.32C130.89 122.45 129.86 122.07 129.11 121.19C128.36 120.32 128 119.17 128.02 117.75C128.04 116.36 128.44 114.97 129.22 113.58C129.99 112.19 130.92 110.93 132 109.79C133.08 108.66 134.21 107.72 135.38 106.97C136.55 106.22 137.56 105.8 138.4 105.71C139.31 105.61 140.1 105.79 140.76 106.24C141.42 106.69 141.74 107.5 141.73 108.67C141.73 109.13 141.54 109.73 141.18 110.46C140.82 111.19 140.35 111.93 139.76 112.67C139.17 113.41 138.49 114.06 137.71 114.62C136.93 115.18 136.11 115.5 135.23 115.59C134.7 115.64 134.25 115.56 133.9 115.33C133.54 115.1 133.29 114.84 133.14 114.55C132.98 114.81 132.82 115.16 132.65 115.59C132.49 116.02 132.39 116.45 132.35 116.87C132.31 117.29 132.38 117.66 132.54 117.98C132.7 118.3 133.04 118.49 133.54 118.53C134.41 118.6 135.29 118.44 136.17 118.06C137.05 117.68 137.9 117.19 138.7 116.59C139.51 115.99 140.26 115.36 140.96 114.7C141.66 114.04 142.28 113.46 142.82 112.96H142.84ZM138.93 109.02C138.58 109.06 138.2 109.2 137.77 109.44C137.34 109.69 136.9 110.01 136.44 110.41C135.98 110.81 135.53 111.27 135.08 111.77C134.63 112.28 134.22 112.83 133.83 113.42C134.52 113.26 135.23 112.94 135.96 112.45C136.69 111.96 137.32 111.46 137.86 110.94C138.4 110.42 138.79 109.96 139.03 109.57C139.27 109.17 139.23 108.99 138.92 109.03L138.93 109.02ZM156.31 95.08C157.32 94.75 158.21 94.59 158.99 94.61C159.77 94.63 160.41 94.75 160.92 94.97C161.43 95.2 161.82 95.47 162.08 95.8C162.34 96.13 162.47 96.44 162.46 96.75C162.46 97.06 162.38 97.37 162.26 97.68C162.13 97.99 161.98 98.27 161.8 98.51C161.62 98.75 161.45 98.93 161.27 99.05C161.1 99.17 160.97 99.19 160.87 99.11C160.78 99.03 160.77 98.88 160.86 98.65C160.94 98.42 161.02 98.19 161.08 97.95C161.15 97.71 161.17 97.51 161.16 97.34C161.15 97.17 161.01 97.11 160.77 97.15C160.71 97.15 160.45 97.24 159.99 97.39C159.54 97.54 158.96 97.71 158.27 97.91C157.58 98.11 156.81 98.32 155.97 98.56C155.13 98.79 154.29 99.01 153.48 99.22C152.17 101.13 150.79 103.47 149.33 106.26C147.88 109.05 146.3 112.49 144.61 116.57C145.12 116.14 145.66 115.67 146.23 115.17C146.8 114.67 147.33 114.2 147.82 113.77C148.31 113.34 148.73 112.97 149.08 112.66C149.43 112.35 149.65 112.15 149.75 112.04C150.13 111.62 150.42 111.43 150.63 111.48C150.83 111.53 150.93 111.72 150.93 112.06C150.93 112.4 150.8 112.82 150.58 113.33C150.35 113.84 150 114.34 149.52 114.83C149.27 115.11 148.85 115.55 148.28 116.15C147.71 116.75 147.09 117.38 146.42 118.05C145.75 118.72 145.11 119.34 144.49 119.91C143.87 120.48 143.39 120.86 143.04 121.06C142.98 121.1 142.91 121.12 142.85 121.13C142.79 121.17 142.68 121.2 142.52 121.22C142.18 121.26 141.89 121.2 141.68 121.04C141.46 120.88 141.29 120.67 141.15 120.41C141.02 120.15 140.92 119.86 140.88 119.54C140.84 119.22 140.82 118.92 140.82 118.65C140.84 117.45 141.06 116.09 141.47 114.58C141.89 113.07 142.43 111.51 143.1 109.89C143.77 108.27 144.53 106.64 145.39 104.98C146.25 103.32 147.11 101.73 147.98 100.2C147.96 100.2 147.95 100.2 147.93 100.2C147.3 100.28 146.71 100.3 146.15 100.26C145.59 100.22 145.1 100.11 144.68 99.93C144.26 99.75 143.93 99.47 143.69 99.11C143.45 98.75 143.33 98.27 143.34 97.68C143.34 97.22 143.44 96.8 143.62 96.44C143.8 96.08 144 95.79 144.22 95.56C144.44 95.33 144.66 95.17 144.86 95.07C145.07 94.97 145.2 94.94 145.26 95C145.38 95.14 145.38 95.34 145.25 95.6C145.12 95.86 145.01 96.12 144.93 96.38C144.85 96.64 144.88 96.85 145.01 97.02C145.15 97.19 145.55 97.23 146.2 97.15C146.57 97.1 147.14 97 147.89 96.85C148.64 96.69 149.47 96.49 150.38 96.25C151.47 94.58 152.28 93.46 152.8 92.87C153.32 92.28 153.73 91.97 154.01 91.93C154.16 91.91 154.42 91.93 154.78 92C155.14 92.07 155.5 92.19 155.85 92.35C156.21 92.51 156.52 92.7 156.78 92.9C157.04 93.11 157.17 93.32 157.17 93.53C157.17 93.62 157.17 93.69 157.17 93.74C157.17 93.79 157.14 93.86 157.1 93.96C157.05 94.06 156.96 94.19 156.84 94.37C156.71 94.54 156.54 94.78 156.31 95.09V95.08ZM163.3 110.02C163.81 109.54 164.14 109.29 164.29 109.28C164.45 109.27 164.5 109.37 164.45 109.6C164.4 109.82 164.29 110.09 164.13 110.41C163.97 110.73 163.84 110.96 163.75 111.1C163.3 111.79 162.69 112.6 161.91 113.54C161.13 114.48 160.25 115.39 159.27 116.27C158.29 117.15 157.23 117.92 156.1 118.6C154.97 119.28 153.84 119.7 152.71 119.86C151.4 120.05 150.36 119.72 149.61 118.89C148.86 118.06 148.5 116.93 148.52 115.51C148.54 114.12 148.94 112.72 149.72 111.29C150.5 109.87 151.42 108.56 152.5 107.38C153.58 106.2 154.71 105.21 155.87 104.41C157.04 103.61 158.05 103.14 158.89 103.01C159.79 102.87 160.58 103.01 161.24 103.42C161.9 103.84 162.22 104.62 162.2 105.79C162.2 106.25 162.01 106.86 161.66 107.6C161.31 108.35 160.83 109.11 160.24 109.88C159.65 110.65 158.97 111.33 158.19 111.93C157.41 112.53 156.59 112.89 155.72 113.02C155.19 113.1 154.74 113.04 154.39 112.83C154.03 112.62 153.78 112.37 153.63 112.09C153.47 112.36 153.31 112.71 153.14 113.15C152.98 113.59 152.87 114.02 152.84 114.44C152.8 114.86 152.86 115.23 153.03 115.54C153.19 115.85 153.53 116.02 154.03 116.04C154.9 116.07 155.78 115.87 156.66 115.44C157.54 115.01 158.38 114.48 159.19 113.85C160 113.22 160.75 112.55 161.44 111.85C162.14 111.15 162.76 110.55 163.29 110.03L163.3 110.02ZM159.39 106.29C159.04 106.34 158.66 106.5 158.24 106.77C157.82 107.04 157.37 107.38 156.91 107.8C156.45 108.22 155.99 108.7 155.55 109.22C155.11 109.75 154.69 110.31 154.3 110.92C154.99 110.73 155.7 110.37 156.42 109.85C157.14 109.33 157.78 108.79 158.32 108.25C158.86 107.71 159.25 107.23 159.49 106.83C159.73 106.42 159.69 106.25 159.38 106.3L159.39 106.29Z" fill="#1D1D1B"/>
<path d="M112.07 25.38C111.87 24.7 111.5 24.01 110.97 23.32C110.44 22.64 109.7 22.02 108.77 21.48C107.84 20.94 106.66 20.57 105.26 20.39C102.67 20.07 99.99 20.18 97.34 20.74C95.73 21.08 94.2 21.55 92.73 22.11C93.08 21.64 93.44 21.16 93.76 20.71C94.98 18.99 95.91 17.44 96.58 16.06C97.25 14.67 97.51 13.54 97.42 12.64C97.39 12.34 97.22 11.95 96.9 11.5C96.59 11.04 96.22 10.64 95.8 10.28C95.38 9.92 94.94 9.67 94.49 9.52C94.03 9.37 93.64 9.43 93.29 9.7C93.09 9.85 93.01 9.96 93.05 10.01C93.1 10.06 93.18 10.1 93.31 10.11C93.44 10.13 93.59 10.16 93.75 10.22C93.92 10.28 94 10.39 94.01 10.55C94.06 11.32 93.88 12.26 93.41 13.37C92.94 14.49 92.29 15.73 91.41 17.11C90.54 18.49 89.5 19.97 88.3 21.55C87.1 23.13 85.85 24.72 84.57 26.29C83.29 27.86 82.04 29.38 80.87 30.81C79.69 32.25 78.66 33.5 77.78 34.59C78.11 33.07 78.6 31.45 79.23 29.76C79.87 28.06 80.57 26.38 81.34 24.74C82.1 23.1 82.87 21.54 83.64 20.09C84.4 18.63 85.09 17.37 85.7 16.28C86.31 15.19 86.79 14.34 87.15 13.68C87.51 13.02 87.68 12.65 87.69 12.52C87.69 12.34 87.57 12.13 87.31 11.87C87.05 11.62 86.75 11.38 86.42 11.16C86.08 10.94 85.75 10.75 85.42 10.59C85.08 10.43 84.86 10.35 84.73 10.33C82.33 10.05 80.04 10.11 77.76 10.55C75.49 11 73.41 11.7 71.57 12.69C69.74 13.68 68.26 14.87 67.16 16.23C66.06 17.59 65.5 18.94 65.4 20.27C65.34 20.99 65.4 21.59 65.59 22.07C65.77 22.55 65.98 22.94 66.24 23.24C66.54 23.58 66.88 23.84 67.29 24.04C67.25 23.87 67.22 23.69 67.19 23.49C67.14 23.15 67.14 22.71 67.18 22.17C67.25 21.27 67.66 20.3 68.45 19.23C69.24 18.16 70.32 17.14 71.71 16.2C73.09 15.26 74.74 14.47 76.61 13.85C78.49 13.23 80.47 12.91 82.6 12.87C82.05 13.71 81.45 14.72 80.81 15.93C80.16 17.14 79.5 18.47 78.85 19.91C78.2 21.36 77.56 22.87 76.97 24.45C76.37 26.02 75.87 27.57 75.45 29.06C75.04 30.56 74.72 31.99 74.5 33.34C74.28 34.7 74.19 35.89 74.23 36.94C74.25 37.72 74.37 38.37 74.57 38.89C74.77 39.41 75.01 39.81 75.28 40.1C75.55 40.39 75.87 40.61 76.22 40.77C76.57 40.92 76.92 41.04 77.26 41.11C77.48 41.16 77.67 41.14 77.83 41.06C77.98 40.98 78.12 40.88 78.26 40.77C78.39 40.65 78.52 40.49 78.62 40.29C79.12 39.39 79.91 38.23 81.05 36.77C81.25 36.51 81.48 36.23 81.69 35.96C81.74 35.91 81.8 35.86 81.86 35.78C85.59 31.32 89.36 28.52 91.31 27.49C93.32 26.42 96.03 25.47 98.51 24.83C100.95 24.2 103.49 24.02 105.96 24.27C106.4 24.31 106.84 24.4 107.27 24.52C107.69 24.64 108.07 24.8 108.39 24.99C108.69 25.17 108.92 25.38 109.08 25.63C109.22 25.84 109.27 26.09 109.24 26.4C109.15 27.22 108.84 28.04 108.29 28.86C107.72 29.71 106.98 30.56 106.07 31.4C105.14 32.25 104.08 33.07 102.9 33.83C101.7 34.6 100.45 35.29 99.18 35.88C97.91 36.48 96.66 36.96 95.48 37.33C94.76 37.55 94.1 37.72 93.5 37.82C94.34 36.86 95.18 35.94 95.99 35.1C97.04 33.99 97.99 33.02 98.82 32.18C99.66 31.33 100.33 30.65 100.83 30.11C101.57 29.33 101.69 29.04 101.72 28.83C101.77 28.49 101.63 28.14 101.27 27.75C101 27.45 100.66 27.16 100.28 26.9C99.91 26.64 99.53 26.41 99.15 26.22C98.72 25.99 98.39 25.9 98.22 25.87C97.95 25.85 97.54 25.96 96.43 26.95C95.64 27.65 94.72 28.6 93.68 29.77C92.63 30.95 91.49 32.34 90.29 33.88C89.09 35.42 87.96 37.01 86.95 38.6C85.92 40.2 85.06 41.76 84.4 43.23C83.71 44.74 83.32 46.11 83.21 47.32C83.08 48.71 83.25 49.7 83.69 50.39C84.16 51.12 84.77 51.5 85.51 51.56C86.2 51.61 86.64 51.48 86.83 51.15C87.08 50.72 86.92 50.43 86.79 50.3C86.71 50.22 86.56 50.13 86.3 50.15C86.26 50.15 86.21 50.15 86.21 50.15C86.21 50.15 86.17 50.05 86.21 49.74C86.39 48.31 86.97 46.75 87.98 45.09C88.93 43.54 90.08 41.91 91.4 40.29C91.7 40.56 92.07 40.82 92.51 41.06C93.15 41.42 93.87 41.59 94.73 41.63C95.75 41.66 96.92 41.45 98.22 41.02C99.5 40.59 100.82 39.99 102.13 39.24C103.43 38.49 104.72 37.6 105.93 36.61C107.13 35.63 108.19 34.58 109.11 33.53C110.02 32.47 110.75 31.41 111.31 30.37C111.87 29.31 112.2 28.27 112.31 27.26C112.37 26.73 112.31 26.11 112.09 25.41L112.07 25.38Z" fill="white"/>
<path d="M149.307 14.878C149.307 10.294 153.02 6.58096 157.604 6.58096C162.188 6.58096 165.901 10.294 165.901 14.878C165.901 19.462 162.188 23.175 157.604 23.175C153.02 23.175 149.307 19.462 149.307 14.878ZM150.591 14.878C150.591 18.8202 153.731 21.9832 157.604 21.9832C161.478 21.9832 164.618 18.8202 164.618 14.878C164.618 10.9358 161.478 7.7728 157.604 7.7728C153.731 7.7728 150.591 10.9358 150.591 14.878ZM161.753 13.1819C161.753 14.5571 161.088 15.4739 159.942 15.9094L162.44 19.6683H159.232L157.352 16.3678H156.481V19.6683H153.8V10.1106H157.902C160.263 10.1106 161.753 11.1879 161.753 13.1819ZM158.911 13.1819C158.911 12.4256 158.498 12.0818 157.696 12.0818H156.481V14.305H157.696C158.498 14.305 158.911 13.9383 158.911 13.1819Z" fill="#1D1D1B"/>
</g>
<defs>
<clipPath id="clip0_1_133">
<rect width="176.23" height="124.47" fill="white"/>
</clipPath>
</defs>
</svg>
