<svg xmlns="http://www.w3.org/2000/svg" viewBox="0 0 980 220" role="img" aria-labelledby="title desc">
<title id="title">DR Performance</title>
<desc id="desc">DR Performance athlete training and development logo for light backgrounds</desc>
<defs>
  <linearGradient id="blue" x1="0" x2="1">
    <stop offset="0" stop-color="#32A8FF"/>
    <stop offset="1" stop-color="#0866C6"/>
  </linearGradient>
</defs>
<g transform="translate(28 30)">
  <path d="M0 24h94c58 0 91 30 91 68s-33 68-91 68H0V24zm44 38v60h48c29 0 47-11 47-30s-18-30-47-30H44z" fill="#11151A"/>
  <path d="M112 24h92c51 0 81 24 81 62 0 27-15 47-43 57l58 47h-65l-51-42h-28v42h-44V24zm44 37v51h45c26 0 40-9 40-26s-14-25-40-25h-45z" fill="url(#blue)"/>
</g>
<line x1="340" y1="32" x2="340" y2="188" stroke="#4C5560" stroke-width="2"/>
<text x="390" y="91" font-family="Arial, Helvetica, sans-serif" font-size="52" font-weight="800" letter-spacing="1">
  <tspan fill="#1672CB">DR</tspan><tspan fill="#11151A"> PERFORMANCE</tspan>
</text>
<line x1="392" y1="112" x2="905" y2="112" stroke="#1672CB" stroke-width="4"/>
<text x="392" y="144" font-family="Arial, Helvetica, sans-serif" font-size="20" font-weight="700" fill="#1672CB" letter-spacing="1.5">
ATHLETE TRAINING &amp; DEVELOPMENT
</text>
<text x="392" y="181" font-family="Arial, Helvetica, sans-serif" font-size="17" fill="#11151A" letter-spacing="3">
SAM DUGGAN  |  MARK RICHARDSON
</text>
</svg>